<svg xmlns="http://www.w3.org/2000/svg" width="100" height="100" id="neon"><path d="M49.858 3.911C24.506 3.911 3.88 24.536 3.88 49.889s20.625 45.978 45.978 45.978 45.978-20.625 45.978-45.978S75.21 3.911 49.858 3.911zm0 89.955c-24.25 0-43.978-19.728-43.978-43.978S25.609 5.911 49.858 5.911s43.978 19.728 43.978 43.978-19.728 43.977-43.978 43.977z"></path><path d="M70.749 60.755c.565-3.659-.624-7.33-3.279-9.987l-.27-.271a.996.996 0 0 1-.438.113 1 1 0 0 1-.708-.293l-4.735-4.74a.99.99 0 0 1-.175-1.15l-3.73-3.739a.99.99 0 0 0-.634-.279l-5.796 5.8a.981.981 0 0 0 .276.627l3.874 3.883c.025-.002.049-.015.074-.015.266 0 .521.105.708.294l4.731 4.742a.986.986 0 0 1 .277.783l.396.396a2.942 2.942 0 0 1 .007 4.154c-1.108 1.108-3.043 1.108-4.152-.001a.911.911 0 0 0-.267-.172l-6.053 6.067a.965.965 0 0 0 .171.258 11.547 11.547 0 0 0 8.228 3.411c.821 0 1.636-.086 2.435-.256a7.446 7.446 0 0 0 6.991 4.93c4.089 0 7.416-3.331 7.416-7.424-.001-3.324-2.236-6.223-5.347-7.131zM68.68 73.312a5.432 5.432 0 0 1-5.312-4.341 1.005 1.005 0 0 0-.98-.803c-.099 0-.198.015-.294.044a9.63 9.63 0 0 1-2.838.426 9.554 9.554 0 0 1-6.071-2.153l3.355-3.36a4.905 4.905 0 0 0 2.713.811 4.898 4.898 0 0 0 3.49-1.447c1.921-1.923 1.917-5.055-.007-6.98l-9.353-9.376 3.323-3.322 9.349 9.372a9.58 9.58 0 0 1 2.552 9.105.998.998 0 0 0 .833 1.227c2.654.373 4.656 2.682 4.656 5.373-.001 2.99-2.43 5.424-5.416 5.424zM35.548 50.76l4.733 4.741a.989.989 0 0 1 .175 1.149l3.751 3.752a.996.996 0 0 0 .632.278l5.792-5.804a.986.986 0 0 0-.278-.63l-3.886-3.888a.992.992 0 0 1-.776-.269l-4.736-4.74a.984.984 0 0 1-.278-.784l-.396-.396a2.917 2.917 0 0 1-.857-2.078c0-.789.308-1.529.866-2.087 1.108-1.11 3.042-1.111 4.152-.001.077.077.17.13.266.178l6.061-6.064a.998.998 0 0 0-.178-.269 11.55 11.55 0 0 0-8.223-3.41 11.7 11.7 0 0 0-1.683.122 7.38 7.38 0 0 0-7.085-5.226c-4.09 0-7.417 3.332-7.417 7.426 0 3.148 1.926 5.878 4.793 6.953-.798 3.83.369 7.82 3.16 10.614l.262.262c.372-.178.851-.129 1.15.171zm-2.413-11.442a1 1 0 0 0-.737-1.262 5.397 5.397 0 0 1-4.218-5.296c0-2.992 2.43-5.426 5.417-5.426a5.392 5.392 0 0 1 5.344 4.546 1 1 0 0 0 1.216.814 9.662 9.662 0 0 1 2.209-.256c2.235 0 4.355.758 6.066 2.153l-3.356 3.361a4.9 4.9 0 0 0-2.711-.81c-1.319 0-2.56.515-3.491 1.448a4.919 4.919 0 0 0-1.451 3.499 4.896 4.896 0 0 0 1.443 3.493l9.366 9.37-3.319 3.327-9.365-9.367a9.65 9.65 0 0 1-2.413-9.594z"></path><path d="M40.955 43.936a.986.986 0 0 0-.278.63.987.987 0 0 0 .278.784l4.736 4.74a1 1 0 0 0 .776.269.978.978 0 0 0 .639-.269l3.878-3.88 5.796-5.8.394-.394c1.115-1.115 3.041-1.116 4.147-.009a2.944 2.944 0 0 1-.001 4.158.97.97 0 0 0-.175.264.988.988 0 0 0 .175 1.15l4.735 4.74a1 1 0 0 0 .708.293.983.983 0 0 0 .438-.113.999.999 0 0 0 .27-.181 11.684 11.684 0 0 0 3.203-10.417 7.446 7.446 0 0 0 5.362-7.139c0-4.095-3.328-7.426-7.417-7.426-3.313 0-6.201 2.225-7.117 5.326a11.668 11.668 0 0 0-2.241-.217 11.566 11.566 0 0 0-8.233 3.415l-.259.259-6.061 6.064-3.753 3.753zm11.486-8.663a9.573 9.573 0 0 1 6.818-2.829 9.64 9.64 0 0 1 2.718.39 1.002 1.002 0 0 0 1.273-.823 5.439 5.439 0 0 1 5.367-4.676c2.987 0 5.417 2.434 5.417 5.426 0 2.716-2.021 5.029-4.7 5.38a1.001 1.001 0 0 0-.831 1.267 9.687 9.687 0 0 1-1.778 8.751L63.369 44.8a4.951 4.951 0 0 0-.633-6.207 4.886 4.886 0 0 0-3.48-1.443 4.915 4.915 0 0 0-3.496 1.451l-9.361 9.368-3.323-3.325 9.365-9.371zm8.206 21.88a.983.983 0 0 0 .277-.629.983.983 0 0 0-.277-.783L55.916 51a1 1 0 0 0-.708-.294c-.025 0-.049.013-.074.015A.994.994 0 0 0 54.5 51l-3.869 3.877-5.792 5.804-.399.4c-1.106 1.109-3.045 1.108-4.157-.006a2.947 2.947 0 0 1-.001-4.16.945.945 0 0 0 .174-.264.989.989 0 0 0-.175-1.149l-4.733-4.741c-.299-.3-.778-.35-1.152-.17a.941.941 0 0 0-.263.17 11.725 11.725 0 0 0-3.244 10.185 7.394 7.394 0 0 0-4.77 6.942c0 4.094 3.328 7.424 7.418 7.424a7.381 7.381 0 0 0 6.951-4.822c.621.101 1.25.152 1.88.152 3.109 0 6.029-1.21 8.222-3.408l.264-.265 6.053-6.067 3.74-3.749zm-11.472 8.669a9.55 9.55 0 0 1-6.806 2.82 9.689 9.689 0 0 1-2.333-.285 1 1 0 0 0-1.215.747 5.398 5.398 0 0 1-5.283 4.208 5.428 5.428 0 0 1-5.418-5.424 5.401 5.401 0 0 1 4.166-5.282 1.002 1.002 0 0 0 .739-1.22 9.724 9.724 0 0 1 1.854-8.466l3.354 3.36a4.957 4.957 0 0 0 .635 6.208 4.914 4.914 0 0 0 3.5 1.452c1.32 0 2.559-.514 3.489-1.446l9.352-9.372 3.318 3.326-9.352 9.374z"></path></svg>