<?xml version="1.0" encoding="UTF-8"?>
<svg xmlns="http://www.w3.org/2000/svg" xmlns:xlink="http://www.w3.org/1999/xlink" width="24px" height="24px" viewBox="0 0 24 24" version="1.1">
<g id="surface1">
<path style=" stroke:none;fill-rule:nonzero;fill:rgb(0%,0%,0%);fill-opacity:1;" d="M 11.964844 0.9375 C 5.882812 0.9375 0.929688 5.886719 0.929688 11.972656 C 0.929688 18.058594 5.882812 23.007812 11.964844 23.007812 C 18.050781 23.007812 23 18.058594 23 11.972656 C 23 5.886719 18.050781 0.9375 11.964844 0.9375 Z M 11.964844 22.527344 C 6.144531 22.527344 1.410156 17.792969 1.410156 11.972656 C 1.410156 6.152344 6.144531 1.417969 11.964844 1.417969 C 17.785156 1.417969 22.519531 6.152344 22.519531 11.972656 C 22.519531 17.792969 17.785156 22.527344 11.964844 22.527344 Z M 11.964844 22.527344 "/>
<path style=" stroke:none;fill-rule:nonzero;fill:rgb(0%,0%,0%);fill-opacity:1;" d="M 16.980469 14.582031 C 17.117188 13.703125 16.828125 12.820312 16.191406 12.183594 L 16.128906 12.121094 C 16.09375 12.136719 16.058594 12.144531 16.023438 12.144531 C 15.960938 12.144531 15.898438 12.121094 15.851562 12.074219 L 14.714844 10.9375 C 14.644531 10.867188 14.628906 10.753906 14.675781 10.664062 L 13.78125 9.765625 C 13.738281 9.726562 13.683594 9.703125 13.628906 9.699219 L 12.234375 11.089844 C 12.238281 11.148438 12.261719 11.199219 12.300781 11.242188 L 13.230469 12.171875 C 13.238281 12.171875 13.242188 12.167969 13.25 12.167969 C 13.3125 12.167969 13.375 12.195312 13.417969 12.238281 L 14.554688 13.378906 C 14.605469 13.425781 14.628906 13.496094 14.621094 13.566406 L 14.71875 13.660156 C 14.992188 13.9375 14.992188 14.382812 14.71875 14.65625 C 14.453125 14.921875 13.988281 14.921875 13.722656 14.65625 C 13.703125 14.640625 13.679688 14.625 13.65625 14.617188 L 12.207031 16.070312 C 12.214844 16.09375 12.230469 16.117188 12.246094 16.132812 C 12.769531 16.660156 13.480469 16.953125 14.222656 16.953125 C 14.417969 16.953125 14.613281 16.933594 14.804688 16.890625 C 15.058594 17.597656 15.730469 18.074219 16.484375 18.074219 C 17.464844 18.074219 18.261719 17.273438 18.261719 16.292969 C 18.261719 15.496094 17.726562 14.800781 16.980469 14.582031 Z M 16.484375 17.59375 C 15.863281 17.59375 15.332031 17.160156 15.207031 16.554688 C 15.183594 16.441406 15.085938 16.359375 14.972656 16.359375 C 14.949219 16.359375 14.925781 16.363281 14.902344 16.371094 C 14.683594 16.4375 14.453125 16.472656 14.222656 16.472656 C 13.691406 16.476562 13.175781 16.292969 12.765625 15.957031 L 13.570312 15.148438 C 13.761719 15.277344 13.988281 15.34375 14.222656 15.34375 C 14.535156 15.34375 14.835938 15.21875 15.058594 14.996094 C 15.519531 14.535156 15.519531 13.785156 15.054688 13.320312 L 12.8125 11.070312 L 13.609375 10.273438 L 15.851562 12.523438 C 16.425781 13.09375 16.660156 13.921875 16.464844 14.710938 C 16.449219 14.773438 16.460938 14.84375 16.5 14.902344 C 16.539062 14.957031 16.597656 14.996094 16.664062 15.003906 C 17.300781 15.09375 17.78125 15.648438 17.78125 16.292969 C 17.78125 17.011719 17.199219 17.59375 16.484375 17.59375 Z M 8.53125 12.183594 L 9.667969 13.320312 C 9.738281 13.394531 9.757812 13.503906 9.710938 13.597656 L 10.609375 14.496094 C 10.652344 14.535156 10.703125 14.558594 10.761719 14.5625 L 12.152344 13.171875 C 12.148438 13.113281 12.125 13.058594 12.085938 13.019531 L 11.152344 12.085938 C 11.082031 12.09375 11.015625 12.070312 10.964844 12.019531 L 9.828125 10.882812 C 9.78125 10.835938 9.753906 10.765625 9.761719 10.695312 L 9.667969 10.601562 C 9.535156 10.46875 9.460938 10.289062 9.460938 10.101562 C 9.460938 9.914062 9.535156 9.734375 9.667969 9.601562 C 9.933594 9.335938 10.398438 9.335938 10.667969 9.601562 C 10.683594 9.621094 10.707031 9.632812 10.730469 9.644531 L 12.183594 8.1875 C 12.175781 8.164062 12.160156 8.144531 12.140625 8.125 C 11.621094 7.597656 10.910156 7.304688 10.167969 7.304688 C 10.03125 7.304688 9.898438 7.316406 9.765625 7.335938 C 9.535156 6.585938 8.84375 6.078125 8.0625 6.082031 C 7.082031 6.082031 6.285156 6.878906 6.285156 7.863281 C 6.285156 8.617188 6.746094 9.273438 7.433594 9.53125 C 7.242188 10.449219 7.523438 11.40625 8.191406 12.078125 L 8.253906 12.140625 C 8.34375 12.097656 8.460938 12.109375 8.53125 12.183594 Z M 7.953125 9.4375 C 7.972656 9.371094 7.964844 9.304688 7.929688 9.246094 C 7.894531 9.1875 7.839844 9.148438 7.777344 9.132812 C 7.179688 9 6.761719 8.472656 6.761719 7.863281 C 6.761719 7.144531 7.347656 6.558594 8.0625 6.558594 C 8.703125 6.558594 9.246094 7.019531 9.347656 7.652344 C 9.355469 7.71875 9.394531 7.773438 9.449219 7.8125 C 9.503906 7.847656 9.574219 7.863281 9.636719 7.847656 C 9.8125 7.804688 9.988281 7.785156 10.167969 7.785156 C 10.703125 7.785156 11.214844 7.96875 11.625 8.300781 L 10.816406 9.109375 C 10.625 8.980469 10.398438 8.914062 10.167969 8.914062 C 9.851562 8.914062 9.554688 9.039062 9.328125 9.261719 C 9.105469 9.484375 8.980469 9.785156 8.980469 10.101562 C 8.980469 10.414062 9.105469 10.71875 9.328125 10.941406 L 11.574219 13.1875 L 10.777344 13.988281 L 8.53125 11.738281 C 7.929688 11.136719 7.707031 10.25 7.953125 9.4375 Z M 7.953125 9.4375 "/>
<path style=" stroke:none;fill-rule:nonzero;fill:rgb(0%,0%,0%);fill-opacity:1;" d="M 9.828125 10.542969 C 9.789062 10.585938 9.765625 10.640625 9.761719 10.695312 C 9.757812 10.765625 9.78125 10.835938 9.828125 10.882812 L 10.964844 12.023438 C 11.015625 12.070312 11.082031 12.09375 11.152344 12.085938 C 11.210938 12.085938 11.265625 12.0625 11.304688 12.023438 L 12.234375 11.089844 L 13.628906 9.699219 L 13.722656 9.605469 C 13.988281 9.335938 14.453125 9.335938 14.71875 9.601562 C 14.992188 9.878906 14.992188 10.324219 14.71875 10.597656 C 14.699219 10.617188 14.683594 10.640625 14.675781 10.664062 C 14.628906 10.753906 14.644531 10.867188 14.71875 10.9375 L 15.851562 12.078125 C 15.898438 12.121094 15.960938 12.148438 16.023438 12.148438 C 16.058594 12.144531 16.097656 12.136719 16.128906 12.121094 C 16.152344 12.109375 16.175781 12.09375 16.191406 12.078125 C 16.847656 11.421875 17.132812 10.484375 16.960938 9.578125 C 17.722656 9.355469 18.246094 8.65625 18.25 7.863281 C 18.25 6.878906 17.449219 6.082031 16.46875 6.082031 C 15.671875 6.082031 14.980469 6.613281 14.761719 7.359375 C 14.582031 7.324219 14.402344 7.308594 14.222656 7.308594 C 13.480469 7.304688 12.769531 7.601562 12.246094 8.125 L 12.183594 8.1875 L 10.730469 9.644531 Z M 12.585938 8.464844 C 13.019531 8.03125 13.609375 7.785156 14.222656 7.785156 C 14.441406 7.785156 14.664062 7.816406 14.875 7.878906 C 14.941406 7.898438 15.015625 7.890625 15.074219 7.851562 C 15.132812 7.8125 15.171875 7.75 15.179688 7.683594 C 15.269531 7.039062 15.820312 6.5625 16.46875 6.558594 C 17.183594 6.558594 17.769531 7.144531 17.769531 7.863281 C 17.769531 8.515625 17.28125 9.070312 16.640625 9.152344 C 16.570312 9.164062 16.507812 9.203125 16.472656 9.261719 C 16.433594 9.320312 16.421875 9.390625 16.441406 9.457031 C 16.648438 10.1875 16.488281 10.96875 16.015625 11.558594 L 15.207031 10.753906 C 15.515625 10.28125 15.453125 9.660156 15.054688 9.261719 C 14.835938 9.039062 14.535156 8.914062 14.222656 8.914062 C 13.90625 8.914062 13.605469 9.039062 13.382812 9.265625 L 11.136719 11.511719 L 10.339844 10.714844 Z M 14.554688 13.714844 C 14.59375 13.675781 14.617188 13.621094 14.621094 13.566406 C 14.628906 13.496094 14.605469 13.425781 14.554688 13.378906 L 13.417969 12.238281 C 13.375 12.195312 13.3125 12.167969 13.25 12.167969 C 13.242188 12.167969 13.238281 12.171875 13.230469 12.171875 C 13.175781 12.175781 13.121094 12.199219 13.078125 12.238281 L 12.152344 13.171875 L 10.664062 14.660156 C 10.398438 14.925781 9.933594 14.925781 9.667969 14.65625 C 9.394531 14.382812 9.394531 13.9375 9.667969 13.660156 C 9.683594 13.640625 9.699219 13.621094 9.710938 13.597656 C 9.757812 13.503906 9.738281 13.394531 9.667969 13.320312 L 8.53125 12.183594 C 8.460938 12.109375 8.34375 12.097656 8.253906 12.140625 C 8.230469 12.152344 8.210938 12.164062 8.191406 12.183594 C 7.554688 12.824219 7.265625 13.734375 7.414062 14.628906 C 6.722656 14.890625 6.265625 15.554688 6.269531 16.292969 C 6.269531 17.277344 7.066406 18.074219 8.050781 18.074219 C 8.792969 18.078125 9.460938 17.617188 9.71875 16.917969 C 9.867188 16.941406 10.015625 16.953125 10.167969 16.953125 C 10.914062 16.953125 11.617188 16.664062 12.140625 16.136719 L 12.203125 16.074219 L 13.65625 14.617188 Z M 11.800781 15.796875 C 11.371094 16.230469 10.78125 16.476562 10.167969 16.472656 C 9.980469 16.472656 9.792969 16.449219 9.609375 16.40625 C 9.546875 16.390625 9.480469 16.402344 9.425781 16.433594 C 9.371094 16.46875 9.332031 16.523438 9.316406 16.585938 C 9.183594 17.175781 8.65625 17.597656 8.050781 17.59375 C 7.332031 17.59375 6.75 17.011719 6.75 16.292969 C 6.746094 15.6875 7.160156 15.164062 7.75 15.027344 C 7.8125 15.011719 7.863281 14.972656 7.898438 14.917969 C 7.933594 14.859375 7.941406 14.796875 7.925781 14.734375 C 7.746094 14.023438 7.914062 13.269531 8.371094 12.699219 L 9.175781 13.507812 C 8.867188 13.976562 8.933594 14.597656 9.328125 14.996094 C 9.550781 15.222656 9.851562 15.347656 10.167969 15.34375 C 10.484375 15.34375 10.78125 15.222656 11.003906 15 L 13.25 12.75 L 14.046875 13.546875 Z M 11.800781 15.796875 "/>
</g>
</svg>
